<svg width="50" height="48" viewBox="0 0 50 48" fill="none" xmlns="http://www.w3.org/2000/svg">
<path d="M33.4003 0H2.32824C1.04239 0 0 1.04239 0 2.32824V45.6718C0 46.9576 1.04239 48 2.32824 48H33.4003C34.6861 48 35.7285 46.9576 35.7285 45.6718V2.32824C35.7285 1.04239 34.6861 0 33.4003 0Z" fill="url(#paint0_linear_85_2)"/>
<path d="M44.5974 13.8996C47.2967 13.8996 49.485 11.7113 49.485 9.01197C49.485 6.3126 47.2967 4.12433 44.5974 4.12433C41.898 4.12433 39.7097 6.3126 39.7097 9.01197C39.7097 11.7113 41.898 13.8996 44.5974 13.8996Z" fill="#FF793E"/>
<path d="M35.5322 36.0877L29.3956 38.0518C29.2437 38.1001 29.0835 38.1167 28.9248 38.1006C28.7662 38.0844 28.6126 38.0359 28.4735 37.9579C28.3344 37.8799 28.2128 37.7742 28.1163 37.6473C28.0197 37.5205 27.9503 37.3751 27.9122 37.2202L26.3473 30.9706C26.2755 30.684 26.3153 30.3808 26.4587 30.1224L39.6532 6.40599C39.782 6.17491 39.9974 6.00446 40.2518 5.93211C40.5063 5.85976 40.7791 5.89143 41.0102 6.02016L48.9928 10.4671C49.1083 10.5298 49.2103 10.6146 49.293 10.7168C49.3756 10.8191 49.4373 10.9366 49.4743 11.0627C49.5114 11.1888 49.5232 11.321 49.5091 11.4516C49.4949 11.5823 49.4551 11.7089 49.3919 11.8241L36.1941 35.5356C36.0523 35.7975 35.8154 35.9951 35.5322 36.0877Z" fill="url(#paint1_linear_85_2)"/>
<path d="M23.6782 24.711H6.30285C6.06026 24.711 5.82762 24.6146 5.65608 24.4431C5.48455 24.2715 5.38818 24.0389 5.38818 23.7963C5.38818 23.5537 5.48455 23.3211 5.65608 23.1495C5.82762 22.978 6.06026 22.8816 6.30285 22.8816H23.6782C23.9208 22.8816 24.1534 22.978 24.3249 23.1495C24.4965 23.3211 24.5928 23.5537 24.5928 23.7963C24.5928 24.0389 24.4965 24.2715 24.3249 24.4431C24.1534 24.6146 23.9208 24.711 23.6782 24.711Z" fill="#7EA1E0"/>
<path d="M18.1586 29.4123H6.30285C6.06026 29.4123 5.82762 29.316 5.65608 29.1444C5.48455 28.9729 5.38818 28.7403 5.38818 28.4977C5.38818 28.2551 5.48455 28.0224 5.65608 27.8509C5.82762 27.6794 6.06026 27.583 6.30285 27.583H18.1586C18.4012 27.583 18.6338 27.6794 18.8053 27.8509C18.9769 28.0224 19.0732 28.2551 19.0732 28.4977C19.0732 28.7403 18.9769 28.9729 18.8053 29.1444C18.6338 29.316 18.4012 29.4123 18.1586 29.4123Z" fill="#7EA1E0"/>
<path d="M18.1586 34.2999H6.30285C6.06026 34.2999 5.82762 34.2036 5.65608 34.032C5.48455 33.8605 5.38818 33.6279 5.38818 33.3853C5.38818 33.1427 5.48455 32.91 5.65608 32.7385C5.82762 32.567 6.06026 32.4706 6.30285 32.4706H18.1586C18.4012 32.4706 18.6338 32.567 18.8053 32.7385C18.9769 32.91 19.0732 33.1427 19.0732 33.3853C19.0732 33.6279 18.9769 33.8605 18.8053 34.032C18.6338 34.2036 18.4012 34.2999 18.1586 34.2999Z" fill="#7EA1E0"/>
<path d="M15.0704 8.96039H7.61004C7.24265 8.96039 6.94482 9.25821 6.94482 9.6256V16.6768C6.94482 17.0442 7.24265 17.3421 7.61004 17.3421H15.0704C15.4378 17.3421 15.7356 17.0442 15.7356 16.6768V9.6256C15.7356 9.25821 15.4378 8.96039 15.0704 8.96039Z" fill="url(#paint2_linear_85_2)"/>
<defs>
<linearGradient id="paint0_linear_85_2" x1="17.8643" y1="0" x2="17.8643" y2="48" gradientUnits="userSpaceOnUse">
<stop stop-color="#F4F4F4"/>
<stop offset="1" stop-color="#D2E2FF"/>
</linearGradient>
<linearGradient id="paint1_linear_85_2" x1="34.9156" y1="39.0866" x2="40.4276" y2="5.86135" gradientUnits="userSpaceOnUse">
<stop stop-color="#FF793E"/>
<stop offset="1" stop-color="#D2E2FF"/>
</linearGradient>
<linearGradient id="paint2_linear_85_2" x1="11.3402" y1="17.3421" x2="11.3402" y2="8.96039" gradientUnits="userSpaceOnUse">
<stop stop-color="#FF793E"/>
<stop offset="1" stop-color="#D2E2FF"/>
</linearGradient>
</defs>
</svg>
