<?xml version="1.0" standalone="no"?>
<!DOCTYPE svg PUBLIC "-//W3C//DTD SVG 20010904//EN"
 "http://www.w3.org/TR/2001/REC-SVG-20010904/DTD/svg10.dtd">
<svg version="1.0" xmlns="http://www.w3.org/2000/svg"
 width="664.000000pt" height="664.000000pt" viewBox="0 0 664.000000 664.000000"
 preserveAspectRatio="xMidYMid meet">
<metadata>
Created by potrace 1.14, written by Peter Selinger 2001-2017
</metadata>
<g transform="translate(0.000000,664.000000) scale(0.100000,-0.100000)"
fill="#000000" stroke="none">
<path d="M5209 6317 c-1 -1 -2 -138 -3 -305 l-1 -303 90 -54 c372 -223 620
-583 705 -1024 22 -114 21 -97 23 -296 2 -129 -7 -257 -18 -275 -2 -3 -6 -23
-9 -45 -33 -205 -176 -514 -312 -670 -129 -150 -268 -267 -406 -345 -32 -17
-61 -37 -65 -42 -3 -6 -7 -159 -9 -340 -2 -181 -6 -333 -9 -338 -3 -6 -3 -10
2 -10 8 0 8 -98 0 -107 -3 -2 -2 -17 2 -31 5 -15 5 -36 1 -47 -4 -11 -4 -34 0
-52 4 -18 5 -34 2 -37 -4 -5 -4 -80 0 -364 l1 -82 286 2 286 3 0 538 c0 603
-7 536 66 589 80 58 262 232 329 316 19 24 40 49 45 55 24 27 145 217 177 277
33 63 118 255 122 275 2 12 25 84 33 105 3 8 7 20 8 25 2 6 10 37 18 70 9 33
19 76 22 95 3 19 8 42 10 50 2 8 7 34 10 57 3 23 8 57 11 75 10 57 12 410 3
473 -5 33 -11 80 -14 105 -3 25 -7 56 -10 70 -3 14 -7 34 -9 45 -16 74 -62
232 -92 314 -38 101 -122 276 -155 322 -10 15 -19 32 -19 38 0 6 -4 11 -10 11
-5 0 -10 7 -10 15 0 8 -4 15 -10 15 -5 0 -10 7 -10 15 0 8 -4 15 -10 15 -5 0
-10 5 -10 11 0 9 -84 120 -132 174 -58 66 -162 169 -218 216 -36 30 -67 56
-70 60 -3 3 -27 21 -55 40 -27 18 -51 37 -53 42 -2 4 -7 7 -12 7 -5 0 -32 16
-62 35 -72 48 -296 158 -385 189 -40 14 -73 25 -74 23z"/>
<path d="M4415 5384 c-104 -18 -115 -21 -170 -39 -260 -90 -471 -273 -600
-519 -31 -61 -79 -193 -90 -251 -20 -104 -25 -251 -11 -330 18 -98 74 -234
157 -377 43 -73 172 -251 234 -322 6 -6 39 -45 75 -85 71 -82 235 -248 321
-326 46 -42 88 -78 173 -150 7 -5 24 -21 39 -34 l26 -24 68 58 c179 152 327
294 468 447 218 237 381 481 454 679 37 99 49 172 46 280 -3 107 -7 134 -30
229 -54 218 -197 431 -388 574 -26 20 -51 36 -56 36 -5 0 -11 3 -13 8 -6 15
-144 80 -222 106 -44 14 -107 31 -140 37 -86 16 -258 18 -341 3z m287 -336
c24 -5 48 -11 53 -12 104 -23 238 -107 328 -206 69 -77 137 -199 151 -274 2
-12 9 -40 14 -64 6 -23 9 -82 7 -130 -2 -71 -8 -101 -34 -162 -26 -61 -102
-195 -133 -235 -4 -5 -33 -44 -65 -85 -88 -117 -156 -194 -309 -348 l-142
-144 -129 129 c-142 143 -216 226 -312 347 -66 84 -141 191 -141 201 0 3 -11
22 -23 43 -13 20 -36 68 -51 106 -38 95 -41 177 -11 336 6 33 71 179 84 190 3
3 19 24 34 46 81 120 245 226 401 259 73 15 218 17 278 3z"/>
<path d="M4465 4687 c-33 -11 -65 -25 -71 -31 -7 -6 -26 -21 -43 -34 -63 -48
-112 -145 -124 -243 -14 -116 54 -257 158 -326 76 -51 192 -71 289 -49 34 8
104 43 123 61 7 7 16 15 20 17 22 9 83 100 101 150 31 82 26 193 -12 271 -80
163 -268 242 -441 184z"/>
<path d="M2 4340 l3 -915 127 0 128 0 1 25 c0 14 0 191 0 394 l-1 369 58 -6
c31 -3 71 -11 87 -18 17 -7 33 -13 36 -13 23 -3 165 -132 354 -321 231 -232
315 -302 424 -355 117 -58 150 -67 251 -71 86 -4 80 -14 80 126 l0 125 -37 1
c-56 1 -82 7 -138 33 -72 34 -144 92 -338 277 -184 175 -192 182 -256 239 -71
62 -106 87 -173 122 l-47 25 61 54 c34 30 75 66 90 82 16 15 31 27 34 27 2 0
17 12 32 28 15 15 57 52 92 84 36 31 81 70 100 88 19 17 64 57 99 88 36 31 69
62 75 67 6 6 42 37 80 70 38 33 79 69 91 80 12 11 57 52 100 90 114 102 125
112 125 116 0 4 -325 4 -340 0 -9 -2 -57 -44 -205 -180 -39 -36 -176 -159
-251 -226 -38 -34 -151 -135 -183 -165 -21 -19 -73 -67 -117 -106 -43 -39 -99
-90 -124 -112 -25 -23 -48 -42 -52 -42 -3 0 -6 185 -7 412 0 226 -3 414 -7
417 -3 3 -62 6 -130 6 l-124 0 2 -915z"/>
<path d="M1810 5134 c0 -89 3 -123 13 -126 6 -2 153 -4 325 -4 l312 1 1 -35
c0 -19 1 -374 1 -787 1 -547 4 -753 12 -754 6 0 62 -1 124 -2 93 -2 115 1 121
13 4 8 7 364 6 790 l-1 775 326 0 325 0 1 115 c1 63 -1 120 -5 125 -4 7 -259
11 -783 10 l-778 0 0 -121z"/>
<path d="M0 1753 c0 -723 3 -913 13 -914 50 -2 240 1 244 4 2 3 4 358 5 789
l0 784 481 0 482 -1 0 125 0 125 -612 1 -613 1 0 -914z"/>
<path d="M1880 2664 c0 -2 34 -72 75 -154 l75 -151 -39 -72 c-21 -40 -57 -104
-80 -144 -22 -40 -41 -74 -41 -77 0 -2 -17 -35 -38 -73 -41 -72 -82 -147 -140
-253 -95 -175 -293 -537 -302 -550 -5 -8 -17 -31 -25 -50 -9 -19 -21 -38 -28
-42 -7 -4 -62 -8 -122 -8 l-111 0 1 -347 0 -348 123 0 c78 -1 122 3 123 10 1
5 2 104 3 220 l1 210 778 1 779 2 -7 -67 c-3 -36 -8 -77 -10 -91 -8 -57 -17
-127 -20 -162 -2 -20 -6 -41 -9 -47 -4 -5 -1 -13 6 -17 11 -7 236 -10 242 -3
2 2 7 27 10 54 4 28 9 66 11 85 2 19 9 76 15 125 6 50 13 104 15 120 5 32 11
87 21 175 3 30 7 60 7 65 1 6 -43 12 -108 15 l-110 5 -33 65 c-19 36 -103 202
-188 369 -85 167 -158 309 -163 315 -5 6 -9 15 -9 19 0 4 -30 66 -67 137 -37
71 -65 130 -63 132 1 2 -6 17 -18 33 -11 17 -74 137 -140 267 l-119 237 -147
0 c-82 0 -148 -2 -148 -5z m293 -581 c3 -10 12 -29 21 -43 8 -14 34 -65 58
-115 24 -49 45 -92 48 -95 3 -3 61 -114 128 -247 67 -134 151 -299 187 -367
l64 -125 -530 -1 c-291 0 -529 2 -529 5 0 6 83 168 90 175 3 3 22 37 42 75
194 370 403 755 409 755 4 0 9 -8 12 -17z"/>
<path d="M3582 1753 l3 -915 465 1 c256 0 470 1 475 2 6 1 14 1 19 0 10 -2
172 -3 232 -2 l31 1 0 120 c0 77 -4 120 -11 123 -6 2 -221 3 -479 3 -408 -1
-468 1 -471 14 -3 8 -4 131 -4 273 l-1 257 445 0 444 0 0 123 0 122 -442 0
-443 0 -2 73 c-1 40 -4 80 -7 88 -3 8 -2 14 2 14 8 0 7 333 -2 355 -4 10 1 15
17 16 12 0 231 1 487 2 l465 2 1 118 c2 112 1 117 -20 121 -11 3 -288 4 -614
4 l-592 -1 2 -914z"/>
<path d="M5368 1320 c-29 -9 -64 -22 -78 -30 -50 -27 -111 -96 -143 -159 -28
-58 -32 -75 -32 -151 0 -74 4 -93 31 -151 65 -136 190 -211 341 -204 126 5
248 85 302 197 43 90 47 202 9 290 -24 56 -26 61 -73 112 -87 96 -232 135
-357 96z"/>
</g>
</svg>
