<?xml version="1.0" standalone="no"?>
<!DOCTYPE svg PUBLIC "-//W3C//DTD SVG 20010904//EN"
 "http://www.w3.org/TR/2001/REC-SVG-20010904/DTD/svg10.dtd">
<svg version="1.0" xmlns="http://www.w3.org/2000/svg"
 width="393.000000pt" height="393.000000pt" viewBox="0 0 393.000000 393.000000"
 preserveAspectRatio="xMidYMid meet">
<metadata>
Created by potrace 1.14, written by Peter Selinger 2001-2017
</metadata>
<g transform="translate(0.000000,393.000000) scale(0.100000,-0.100000)"
fill="#000000" stroke="none">
<path d="M1069 3925 c-2 -2 -33 -6 -69 -10 -253 -28 -453 -156 -539 -347 -60
-131 -59 -110 -56 -1193 1 -545 5 -1003 8 -1020 3 -16 11 -55 17 -85 6 -30 14
-66 16 -80 12 -62 77 -236 120 -321 234 -467 667 -780 1182 -854 96 -13 377
-14 452 0 462 83 834 323 1077 696 121 185 213 433 240 644 10 77 10 2007 1
2060 -27 142 -74 232 -171 326 -73 71 -209 136 -331 160 -28 5 -64 13 -81 16
-31 6 -1860 14 -1866 8z m1806 -189 c263 -28 413 -139 457 -338 8 -38 11 -305
12 -978 0 -830 -4 -1015 -19 -1084 -3 -12 -7 -32 -9 -46 -22 -137 -103 -335
-192 -473 l-47 -72 -9 30 c-42 135 -120 310 -201 450 -44 77 -147 215 -159
215 -4 0 -8 5 -8 10 0 24 137 0 210 -37 36 -18 112 -74 140 -102 23 -23 80
-108 80 -118 0 -5 7 -18 14 -29 13 -16 13 -10 0 45 -40 176 -171 297 -375 347
-13 4 -57 8 -97 9 -66 2 -78 6 -125 40 -29 20 -82 57 -119 82 -37 25 -65 49
-63 53 14 23 176 44 228 29 15 -4 27 -4 27 0 0 5 -28 17 -62 28 -72 23 -179
28 -255 14 -51 -10 -54 -9 -156 42 -99 49 -104 54 -91 72 8 10 14 27 14 37 0
19 -25 25 -35 8 -4 -6 -23 -18 -43 -29 -28 -13 -45 -16 -72 -9 -19 5 -84 11
-145 13 -165 7 -314 -28 -511 -120 -83 -39 -254 -141 -254 -152 0 -2 3 -2 8 0
140 73 418 171 547 192 61 10 217 13 245 5 24 -7 23 -8 -20 -26 -82 -34 -414
-200 -515 -259 -251 -145 -441 -299 -558 -453 l-40 -53 -12 28 c-14 34 -42
137 -49 178 -3 17 -10 62 -16 100 -8 47 -11 376 -11 1020 0 1038 -2 1007 58
1116 68 126 227 203 447 216 50 3 92 6 93 7 6 4 1644 -3 1688 -8z m-792 -1944
c42 -19 77 -38 76 -41 0 -3 -27 -26 -60 -49 -223 -163 -507 -441 -666 -652
-104 -138 -228 -365 -283 -517 l-23 -63 -38 30 c-114 91 -244 247 -328 394
l-50 89 32 45 c116 163 411 392 737 572 180 100 482 239 505 233 11 -3 55 -21
98 -41z m215 -119 c15 -10 29 -20 32 -23 3 -3 23 -17 45 -32 22 -15 57 -42 78
-60 l37 -33 -47 -38 c-117 -95 -197 -250 -243 -472 -31 -154 -42 -269 -55
-565 -10 -232 -11 -240 -21 -250 -18 -18 -364 -13 -394 5 -4 2 -22 7 -41 10
-135 23 -329 99 -430 167 -31 21 -34 13 65 213 167 337 415 657 706 910 80 69
228 184 238 185 1 0 15 -8 30 -17z m337 -299 c122 -129 253 -375 334 -627 l31
-98 -58 -57 c-200 -195 -411 -310 -685 -376 l-29 -7 6 78 c4 43 8 103 11 133
8 111 16 206 20 230 1 14 6 50 10 80 6 51 28 174 39 229 24 112 77 246 128
328 41 65 111 133 136 133 8 0 34 -21 57 -46z"/>
<path d="M1689 3372 c-14 -2 -16 -36 -15 -258 1 -141 -1 -257 -3 -259 -2 -2
-58 107 -126 243 -67 136 -129 253 -138 261 -10 8 -27 11 -42 7 -22 -6 -39
-34 -105 -168 -44 -89 -80 -165 -80 -168 0 -4 35 -7 78 -7 126 -1 122 0 138
-38 7 -19 32 -70 53 -115 22 -44 36 -81 33 -83 -4 -2 -97 -3 -207 -2 -110 1
-205 0 -211 -2 -6 -2 -25 -32 -42 -66 -17 -34 -62 -126 -101 -204 l-71 -143
113 0 113 0 57 120 56 120 188 0 188 -1 54 -119 54 -120 266 0 c267 0 267 0
319 26 94 47 155 139 153 233 -1 67 -4 86 -24 132 -15 38 -75 104 -117 131
l-25 16 28 22 c15 12 39 42 54 68 33 56 41 163 17 221 -21 51 -79 106 -138
132 -47 21 -67 22 -276 23 -124 1 -233 0 -241 -2z m393 -179 c57 -28 77 -93
47 -154 -25 -51 -62 -66 -161 -65 l-83 1 -1 117 -1 118 86 -1 c51 -1 97 -7
113 -16z m36 -413 c89 -54 90 -169 3 -227 -30 -20 -47 -23 -136 -23 l-101 0
-1 135 0 135 102 -1 c81 0 109 -4 133 -19z"/>
<path d="M2471 3365 c-4 -5 -7 -230 -6 -500 l1 -490 308 -3 c169 -1 306 1 304
5 -2 5 -22 47 -45 95 l-42 87 -158 3 -158 3 0 397 c0 218 -4 400 -8 405 -12
11 -187 10 -196 -2z"/>
</g>
</svg>
