<svg width="54" height="48" viewBox="0 0 54 48" fill="none" xmlns="http://www.w3.org/2000/svg">
<path d="M50.6305 0H29.2119C27.3509 0 25.8423 1.50406 25.8423 3.35942V44.4609C25.8423 46.3163 27.3509 47.8203 29.2119 47.8203H50.6305C52.4914 47.8203 54.0001 46.3163 54.0001 44.4609V3.35942C54.0001 1.50406 52.4914 0 50.6305 0Z" fill="url(#paint0_linear_85_3)"/>
<path d="M53.9882 10.8964H25.7927V26.3121H53.9882V10.8964Z" fill="url(#paint1_linear_85_3)"/>
<path d="M29.3625 27.4682C29.2635 27.4679 29.1654 27.4876 29.0741 27.5259C28.9829 27.5643 28.9003 27.6206 28.8313 27.6915C28.7278 27.5858 28.595 27.5132 28.4499 27.4832C28.3048 27.4531 28.154 27.4668 28.0167 27.5226C27.8795 27.5784 27.7621 27.6737 27.6794 27.7963C27.5968 27.919 27.5527 28.0634 27.5529 28.2112C27.5529 28.6222 28.6945 29.7466 28.8313 29.6103C28.9661 29.7466 30.1098 28.6222 30.1098 28.2112C30.1098 28.1135 30.0904 28.0167 30.0529 27.9264C30.0153 27.8361 29.9602 27.7541 29.8908 27.6851C29.8214 27.6161 29.739 27.5614 29.6483 27.5242C29.5577 27.4869 29.4606 27.4679 29.3625 27.4682Z" fill="#7EA1E0"/>
<path d="M33.3028 29.4581L33.2255 28.9997C33.3314 28.7682 33.3508 28.5066 33.2803 28.2621C33.2097 28.0175 33.0539 27.8062 32.8409 27.6661C32.6278 27.526 32.3716 27.4665 32.1184 27.4981C31.8652 27.5298 31.6317 27.6506 31.4599 27.8388C31.2882 28.027 31.1895 28.2702 31.1818 28.5245C31.174 28.7788 31.2576 29.0275 31.4176 29.2258C31.5775 29.424 31.8033 29.5588 32.0541 29.6057C32.3049 29.6527 32.5643 29.6088 32.7855 29.4819L33.1819 29.5668C33.1975 29.5715 33.2142 29.5721 33.2301 29.5686C33.2461 29.565 33.2609 29.5574 33.2731 29.5465C33.2852 29.5355 33.2943 29.5217 33.2995 29.5062C33.3048 29.4907 33.3059 29.4742 33.3028 29.4581Z" fill="#7EA1E0"/>
<path d="M34.389 28.0235L35.3424 28.557L35.4633 29.6795L36.8132 27.6717L34.389 28.0235Z" fill="#7EA1E0"/>
<path d="M37.731 26.2825L41.5643 18.8048C41.6285 18.6832 41.7234 18.5803 41.8396 18.5064C41.9558 18.4325 42.0893 18.39 42.227 18.3832C42.3646 18.3764 42.5017 18.4056 42.6247 18.4677C42.7476 18.5299 42.8522 18.6229 42.928 18.7376L47.8635 26.2825H37.731Z" fill="url(#paint2_linear_85_3)"/>
<path d="M27.4933 26.2825L32.4981 16.5995C32.5806 16.4387 32.704 16.3025 32.8561 16.2045C33.0081 16.1065 33.1834 16.0501 33.3643 16.0411C33.5451 16.0321 33.7252 16.0707 33.8863 16.1531C34.0474 16.2355 34.1839 16.3588 34.282 16.5106L40.5534 26.2825H27.4933Z" fill="url(#paint3_linear_85_3)"/>
<path d="M47.4492 18.4471C48.4213 18.4471 49.2093 17.6615 49.2093 16.6923C49.2093 15.7232 48.4213 14.9375 47.4492 14.9375C46.4771 14.9375 45.6891 15.7232 45.6891 16.6923C45.6891 17.6615 46.4771 18.4471 47.4492 18.4471Z" fill="url(#paint4_linear_85_3)"/>
<path d="M43.38 2.83774H35.9669C35.6944 2.83774 35.4734 3.05804 35.4734 3.32979V3.33177C35.4734 3.60353 35.6944 3.82383 35.9669 3.82383H43.38C43.6526 3.82383 43.8735 3.60353 43.8735 3.33177V3.32979C43.8735 3.05804 43.6526 2.83774 43.38 2.83774Z" fill="#7EA1E0"/>
<path d="M29.6975 9.44391C30.6914 9.44391 31.4972 8.64056 31.4972 7.64958C31.4972 6.6586 30.6914 5.85526 29.6975 5.85526C28.7035 5.85526 27.8977 6.6586 27.8977 7.64958C27.8977 8.64056 28.7035 9.44391 29.6975 9.44391Z" fill="#7EA1E0"/>
<path d="M51.0012 33.693H28.7183C28.4292 33.693 28.1519 33.5785 27.9475 33.3747C27.743 33.1708 27.6282 32.8944 27.6282 32.6061C27.6282 32.3179 27.743 32.0414 27.9475 31.8376C28.1519 31.6338 28.4292 31.5193 28.7183 31.5193H51.0012C51.2903 31.5193 51.5676 31.6338 51.772 31.8376C51.9765 32.0414 52.0913 32.3179 52.0913 32.6061C52.0913 32.8944 51.9765 33.1708 51.772 33.3747C51.5676 33.5785 51.2903 33.693 51.0012 33.693Z" fill="#7EA1E0"/>
<path d="M51.0012 37.6117H28.7183C28.4292 37.6117 28.1519 37.4972 27.9475 37.2933C27.743 37.0895 27.6282 36.8131 27.6282 36.5248C27.6282 36.2365 27.743 35.9601 27.9475 35.7563C28.1519 35.5524 28.4292 35.4379 28.7183 35.4379H51.0012C51.2903 35.4379 51.5676 35.5524 51.772 35.7563C51.9765 35.9601 52.0913 36.2365 52.0913 36.5248C52.0913 36.8131 51.9765 37.0895 51.772 37.2933C51.5676 37.4972 51.2903 37.6117 51.0012 37.6117Z" fill="#7EA1E0"/>
<path d="M36.0184 41.4849H28.7183C28.4292 41.4849 28.1519 41.3704 27.9475 41.1666C27.743 40.9627 27.6282 40.6863 27.6282 40.398C27.6282 40.1098 27.743 39.8333 27.9475 39.6295C28.1519 39.4257 28.4292 39.3112 28.7183 39.3112H36.0184C36.3076 39.3112 36.5848 39.4257 36.7893 39.6295C36.9937 39.8333 37.1086 40.1098 37.1086 40.398C37.1086 40.6863 36.9937 40.9627 36.7893 41.1666C36.5848 41.3704 36.3076 41.4849 36.0184 41.4849Z" fill="#7EA1E0"/>
<path d="M22.2784 24.0554L21.3806 19.8897C22.2723 17.5328 22.2942 14.9366 21.4424 12.5651C20.5905 10.1936 18.9204 8.20143 16.7307 6.9448C14.5409 5.68817 11.9742 5.24897 9.4895 5.70571C7.00478 6.16245 4.76398 7.48536 3.16771 9.43795C1.57144 11.3905 0.723766 13.8455 0.776222 16.3639C0.828679 18.8824 1.77785 21.3001 3.45405 23.185C5.13025 25.0698 7.4242 26.2988 9.9258 26.6523C12.4274 27.0058 14.9736 26.4608 17.1091 25.1146L21.5213 25.0118C21.638 25.0092 21.7527 24.9809 21.8572 24.9289C21.9617 24.877 22.0533 24.8027 22.1257 24.7113C22.198 24.6199 22.2492 24.5138 22.2756 24.4004C22.302 24.287 22.303 24.1692 22.2784 24.0554Z" fill="url(#paint5_linear_85_3)"/>
<path d="M13.9258 11.7837C13.4431 11.7836 12.9666 11.8916 12.5312 12.0995C12.0959 12.3074 11.7129 12.6101 11.4105 12.9852C11.0059 12.4403 10.4392 12.0367 9.79103 11.8316C9.1429 11.6266 8.44641 11.6307 7.80074 11.8433C7.15507 12.0559 6.59314 12.4662 6.19497 13.0157C5.7968 13.5653 5.58269 14.2261 5.58313 14.904C5.58313 16.6825 9.74555 20.9351 11.3312 21.1426C12.8832 20.945 17.1586 16.7951 17.1586 15.0166C17.1597 14.5926 17.0768 14.1725 16.9149 13.7805C16.7529 13.3884 16.515 13.032 16.2147 12.7318C15.9144 12.4315 15.5577 12.1932 15.1649 12.0305C14.7722 11.8678 14.3511 11.7839 13.9258 11.7837Z" fill="url(#paint6_linear_85_3)"/>
<defs>
<linearGradient id="paint0_linear_85_3" x1="39.9212" y1="0" x2="39.9212" y2="47.8203" gradientUnits="userSpaceOnUse">
<stop stop-color="#F4F4F4"/>
<stop offset="1" stop-color="#D2E2FF"/>
</linearGradient>
<linearGradient id="paint1_linear_85_3" x1="39.8914" y1="10.8964" x2="39.8914" y2="26.3121" gradientUnits="userSpaceOnUse">
<stop stop-color="#FF793E"/>
<stop offset="1" stop-color="#D2E2FF"/>
</linearGradient>
<linearGradient id="paint2_linear_85_3" x1="42.7972" y1="26.2884" x2="42.7972" y2="18.38" gradientUnits="userSpaceOnUse">
<stop stop-color="#FF793E"/>
<stop offset="1" stop-color="#D2E2FF"/>
</linearGradient>
<linearGradient id="paint3_linear_85_3" x1="34.0243" y1="26.2825" x2="34.0243" y2="16.0383" gradientUnits="userSpaceOnUse">
<stop stop-color="#FF793E"/>
<stop offset="1" stop-color="#D2E2FF"/>
</linearGradient>
<linearGradient id="paint4_linear_85_3" x1="47.4492" y1="18.4471" x2="47.4492" y2="14.9375" gradientUnits="userSpaceOnUse">
<stop stop-color="#FF793E"/>
<stop offset="1" stop-color="#D2E2FF"/>
</linearGradient>
<linearGradient id="paint5_linear_85_3" x1="11.5394" y1="5.54498" x2="11.5394" y2="26.7587" gradientUnits="userSpaceOnUse">
<stop stop-color="#F4F4F4"/>
<stop offset="1" stop-color="#D2E2FF"/>
</linearGradient>
<linearGradient id="paint6_linear_85_3" x1="11.3709" y1="11.6809" x2="11.3709" y2="21.1426" gradientUnits="userSpaceOnUse">
<stop stop-color="#FF793E"/>
<stop offset="1" stop-color="#D2E2FF"/>
</linearGradient>
</defs>
</svg>
