<svg width="57" height="50" viewBox="0 0 57 50" fill="none" xmlns="http://www.w3.org/2000/svg">
<path d="M57 31.3793L26.8063 50L26.5801 49.9284L24.9968 49.4165L13.3894 45.6737H13.3839L10.5427 44.76L0 41.3639L17.527 30.5592L20.0923 28.9795L30.1992 22.7488L49.8998 29.0951L53.0499 30.1079L57 31.3793Z" fill="url(#paint0_linear_85_4)"/>
<path d="M53.0499 30.1079L47.031 31.3959L46.9317 31.3904L30.7619 30.9335L29.0792 30.884L17.527 30.5592L20.0923 28.9795L46.8821 29.7391L49.8998 29.0951L53.0499 30.1079Z" fill="url(#paint1_linear_85_4)"/>
<path d="M30.8833 30.3831L30.7619 30.9335L26.5802 49.9284L24.9968 49.4166L26.6464 41.9364L27.0491 40.109L29.0793 30.884L29.2669 30.0308L30.8833 30.3831Z" fill="url(#paint2_linear_85_4)"/>
<path d="M28.329 41.463L26.6464 41.9364L13.3894 45.6737H13.3839L10.5427 44.76L27.0491 40.109L27.8766 39.8778L28.329 41.463Z" fill="url(#paint3_linear_85_4)"/>
<path d="M43.9802 14.5861C43.9802 22.6387 29.3606 35.5845 29.3606 35.5845C29.3606 35.5845 14.741 22.6387 14.741 14.5861C14.741 10.7176 16.2812 7.00759 19.023 4.27217C21.7647 1.53674 25.4832 0 29.3606 0C33.238 0 36.9565 1.53674 39.6982 4.27217C42.4399 7.00759 43.9802 10.7176 43.9802 14.5861Z" fill="url(#paint4_linear_85_4)"/>
<path d="M29.5206 20.8113C33.0215 20.8113 35.8595 17.9798 35.8595 14.487C35.8595 10.9942 33.0215 8.16272 29.5206 8.16272C26.0198 8.16272 23.1818 10.9942 23.1818 14.487C23.1818 17.9798 26.0198 20.8113 29.5206 20.8113Z" fill="url(#paint5_linear_85_4)"/>
<defs>
<linearGradient id="paint0_linear_85_4" x1="0" y1="36.3771" x2="57" y2="36.3771" gradientUnits="userSpaceOnUse">
<stop stop-color="#F4F4F4"/>
<stop offset="1" stop-color="#D2E2FF"/>
</linearGradient>
<linearGradient id="paint1_linear_85_4" x1="35.2857" y1="31.3959" x2="35.2857" y2="28.9795" gradientUnits="userSpaceOnUse">
<stop stop-color="#FF793E"/>
<stop offset="0.29" stop-color="#FF793E"/>
</linearGradient>
<linearGradient id="paint2_linear_85_4" x1="24.9968" y1="39.9824" x2="30.8833" y2="39.9824" gradientUnits="userSpaceOnUse">
<stop stop-color="#FF793E"/>
<stop offset="0.29" stop-color="#FF793E"/>
</linearGradient>
<linearGradient id="paint3_linear_85_4" x1="10.5427" y1="42.7785" x2="28.329" y2="42.7785" gradientUnits="userSpaceOnUse">
<stop stop-color="#FF793E"/>
<stop offset="0.29" stop-color="#FF793E"/>
</linearGradient>
<linearGradient id="paint4_linear_85_4" x1="29.3606" y1="35.5845" x2="29.3606" y2="0" gradientUnits="userSpaceOnUse">
<stop stop-color="#FF793E"/>
<stop offset="1" stop-color="#D2E2FF"/>
</linearGradient>
<linearGradient id="paint5_linear_85_4" x1="29.5206" y1="20.8058" x2="29.5206" y2="8.16272" gradientUnits="userSpaceOnUse">
<stop offset="0.17" stop-color="#FF793E"/>
<stop offset="0.6" stop-color="#FF793E"/>
</linearGradient>
</defs>
</svg>
