<svg width="70" height="49" viewBox="0 0 70 49" fill="none" xmlns="http://www.w3.org/2000/svg">
<path d="M10.1601 31.3545H0.894569C0.400512 31.3545 0 31.7519 0 32.2421V48.1101C0 48.6003 0.400512 48.9977 0.894569 48.9977H10.1601C10.6541 48.9977 11.0546 48.6003 11.0546 48.1101V32.2421C11.0546 31.7519 10.6541 31.3545 10.1601 31.3545Z" fill="url(#paint0_linear_85_5)"/>
<path d="M26.7409 25.6339H17.4754C16.9813 25.6339 16.5808 26.0313 16.5808 26.5215V48.1124C16.5808 48.6026 16.9813 49 17.4754 49H26.7409C27.2349 49 27.6354 48.6026 27.6354 48.1124V26.5215C27.6354 26.0313 27.2349 25.6339 26.7409 25.6339Z" fill="url(#paint1_linear_85_5)"/>
<path d="M43.5633 18.9569H34.2978C33.8037 18.9569 33.4032 19.3543 33.4032 19.8445V48.1124C33.4032 48.6026 33.8037 49 34.2978 49H43.5633C44.0573 49 44.4578 48.6026 44.4578 48.1124V19.8445C44.4578 19.3543 44.0573 18.9569 43.5633 18.9569Z" fill="url(#paint2_linear_85_5)"/>
<path d="M50.9456 36.2585C46.0997 36.2585 41.4523 34.3484 38.0257 30.9485C34.5991 27.5487 32.6741 22.9374 32.6741 18.1292C32.6741 13.3211 34.5991 8.70982 38.0257 5.30993C41.4523 1.91004 46.0997 0 50.9456 0C51.7464 0 52.5143 0.315612 53.0805 0.877406C53.6467 1.4392 53.9648 2.20116 53.9648 2.99565C53.9648 3.79015 53.6467 4.5521 53.0805 5.1139C52.5143 5.67569 51.7464 5.9913 50.9456 5.9913C47.7012 5.9913 44.5896 7.27012 42.2954 9.54642C40.0013 11.8227 38.7124 14.9101 38.7124 18.1292C38.7124 21.3484 40.0013 24.4358 42.2954 26.7121C44.5896 28.9884 47.7012 30.2672 50.9456 30.2672C51.7464 30.2672 52.5143 30.5828 53.0805 31.1446C53.6467 31.7064 53.9648 32.4683 53.9648 33.2628C53.9648 34.0573 53.6467 34.8193 53.0805 35.3811C52.5143 35.9429 51.7464 36.2585 50.9456 36.2585Z" fill="#7EA1E0"/>
<path d="M51.7329 36.2585C50.9322 36.2585 50.1642 35.9429 49.598 35.3811C49.0318 34.8193 48.7137 34.0573 48.7137 33.2628C48.7137 32.4683 49.0318 31.7064 49.598 31.1446C50.1642 30.5828 50.9322 30.2672 51.7329 30.2672C54.9755 30.2625 58.0839 28.982 60.3763 26.7066C62.6687 24.4312 63.9581 21.3466 63.9617 18.1292C63.9617 17.3347 64.2798 16.5728 64.846 16.011C65.4122 15.4492 66.1801 15.1336 66.9808 15.1336C67.7816 15.1336 68.5495 15.4492 69.1157 16.011C69.6819 16.5728 70 17.3347 70 18.1292C69.9947 22.935 68.0686 27.5425 64.6441 30.9411C61.2196 34.3398 56.5764 36.252 51.7329 36.2585Z" fill="#FF793E"/>
<defs>
<linearGradient id="paint0_linear_85_5" x1="5.5262" y1="49" x2="5.5262" y2="31.3545" gradientUnits="userSpaceOnUse">
<stop stop-color="#FF793E"/>
<stop offset="1" stop-color="#D2E2FF"/>
</linearGradient>
<linearGradient id="paint1_linear_85_5" x1="22.1092" y1="49" x2="22.1092" y2="25.6339" gradientUnits="userSpaceOnUse">
<stop stop-color="#FF793E"/>
<stop offset="1" stop-color="#D2E2FF"/>
</linearGradient>
<linearGradient id="paint2_linear_85_5" x1="38.9294" y1="49" x2="38.9294" y2="18.9569" gradientUnits="userSpaceOnUse">
<stop stop-color="#FF793E"/>
<stop offset="1" stop-color="#D2E2FF"/>
</linearGradient>
</defs>
</svg>
