<svg width="83" height="75" viewBox="0 0 83 75" fill="none" xmlns="http://www.w3.org/2000/svg">
<path d="M9.38501 25.7969C10.179 26.4612 11.1966 27.4021 12.4379 28.6195C13.6053 29.8024 14.8421 30.9147 16.1419 31.9503C16.9389 32.6121 17.9331 32.9905 18.9685 33.0262H19.3893V36.1624H18.639C17.5084 36.1634 16.3942 35.891 15.3916 35.3685C14.3747 34.8476 13.431 34.1948 12.5848 33.4271C11.7485 32.6649 10.7533 31.6856 9.59939 30.4894C8.58747 29.3725 7.49548 28.331 6.3321 27.3729C5.60631 26.7407 4.68571 26.3764 3.72383 26.3408H3.26331V36.1704H0V13.3113H3.26331V23.8873L14.9827 13.3113H19.3893L6.98714 24.3121C7.85889 24.6791 8.66794 25.1801 9.38501 25.7969Z" fill="white"/>
<path d="M42.2047 16.4396H34.0425V36.1585H30.7831V16.4396H22.6169V13.3073H42.2047V16.4396Z" fill="white"/>
<path d="M15.3439 48.7949H3.26331V68.5097H0V45.6586H15.3439V48.7949Z" fill="white"/>
<path d="M39.9498 65.3774L38.9732 73.4087H35.8369L36.4245 68.5098H16.9359V74.0677H13.8036V65.3774H16.7096L25.3919 49.4976L23.4308 45.6427H27.1864L37.2066 65.3616L39.9498 65.3774ZM33.4867 65.3774L26.9918 52.6458L20.1674 65.3774H33.4867Z" fill="white"/>
<path d="M48.0088 48.7274V55.5518H59.1247V58.6205H48.0088V65.441H60.0894V68.5097H44.7455V45.6586H60.0894V48.7274H48.0088Z" fill="white"/>
<path d="M72.1899 45.0115V59.6289H65.0201L65.0321 45.4045L72.1899 45.0115Z" fill="#FF793E"/>
<path style="mix-blend-mode:multiply" d="M72.1582 45.5236V57.4018H64.9884L65.0678 45.1584L72.1582 45.5236Z" fill="url(#paint0_linear_1_23)"/>
<path d="M68.3509 71.2371C70.8197 71.2371 72.8211 69.2357 72.8211 66.7669C72.8211 64.2981 70.8197 62.2968 68.3509 62.2968C65.8821 62.2968 63.8807 64.2981 63.8807 66.7669C63.8807 69.2357 65.8821 71.2371 68.3509 71.2371Z" fill="#FF793E"/>
<path d="M57.2827 29.088C59.7515 29.088 61.7529 27.0866 61.7529 24.6178C61.7529 22.149 59.7515 20.1476 57.2827 20.1476C54.8139 20.1476 52.8125 22.149 52.8125 24.6178C52.8125 27.0866 54.8139 29.088 57.2827 29.088Z" fill="#FF793E"/>
<path d="M79.4946 11.5685C77.2077 7.61293 73.8936 4.34953 69.9032 2.12394C68.3706 1.25612 66.7546 0.544564 65.0797 0V7.67792C65.3933 7.83672 65.7069 8.0114 66.0166 8.19402C68.8767 9.85587 71.241 12.2516 72.8648 15.1335C74.5103 18.1019 75.3736 21.4402 75.3736 24.8341C75.3736 28.2281 74.5103 31.5663 72.8648 34.5348C71.2441 37.4124 68.8875 39.8073 66.0364 41.4743C65.7268 41.6569 65.4132 41.8316 65.0995 41.9904L65.04 49.6881L65.0995 49.6683C68.0515 48.7049 70.8095 47.2264 73.2459 45.3013C75.7804 43.3198 77.9089 40.8678 79.5145 38.0799C81.7993 34.0334 83 29.4653 83 24.8183C83 20.1713 81.7993 15.6031 79.5145 11.5566L79.4946 11.5685Z" fill="#FF793E"/>
<path d="M57.1398 11.5288C53.6991 11.533 50.4006 12.9017 47.9677 15.3346C45.5348 17.7675 44.1661 21.066 44.1619 24.5066C44.1619 26.1224 44.7495 27.8573 45.6586 29.5763C48.5845 35.0866 54.8332 40.45 55.7344 41.2043L57.0643 42.3199L57.1398 42.3834L58.5451 41.1924C59.7361 40.1999 70.1136 31.2675 70.1136 24.4947C70.1063 21.0568 68.7368 17.762 66.3051 15.3317C63.8734 12.9015 60.5777 11.5341 57.1398 11.5288ZM60.9311 32.7721C59.5535 34.3085 58.1521 35.6583 57.1398 36.6071L57.0643 36.5396C56.044 35.5948 54.6823 34.2728 53.3445 32.7721C52.4283 31.7644 51.572 30.7039 50.7799 29.5961C49.3229 27.5278 48.5289 25.7572 48.5289 24.5265C48.5043 23.3804 48.7088 22.2409 49.1303 21.1749C49.5519 20.1089 50.1821 19.1378 50.984 18.3185C51.7858 17.4993 52.7432 16.8484 53.7999 16.404C54.8566 15.9596 55.9914 15.7307 57.1378 15.7307C58.2841 15.7307 59.4189 15.9596 60.4757 16.404C61.5324 16.8484 62.4897 17.4993 63.2916 18.3185C64.0934 19.1378 64.7236 20.1089 65.1452 21.1749C65.5668 22.2409 65.7713 23.3804 65.7467 24.5265C65.7467 26.3368 63.9919 29.35 60.9311 32.7721Z" fill="#FF793E"/>
<path style="mix-blend-mode:multiply" d="M57.0643 36.5396V42.3199L55.7344 41.2043C54.8332 40.45 48.5885 35.0866 45.6586 29.5763H50.7799C51.572 30.6841 52.4284 31.7445 53.3445 32.7522C54.6863 34.2727 56.0441 35.5947 57.0643 36.5396Z" fill="url(#paint1_linear_1_23)"/>
<defs>
<linearGradient id="paint0_linear_1_23" x1="68.5733" y1="57.4018" x2="68.5733" y2="45.1584" gradientUnits="userSpaceOnUse">
<stop stop-color="white"/>
<stop offset="1"/>
</linearGradient>
<linearGradient id="paint1_linear_1_23" x1="51.3595" y1="29.5763" x2="51.3595" y2="42.3199" gradientUnits="userSpaceOnUse">
<stop offset="0.24" stop-color="white"/>
<stop offset="1"/>
</linearGradient>
</defs>
</svg>
